<?xml version="1.0" encoding="UTF-8" standalone="no"?>
<svg
   version="1.1"
   height="106"
   width="106"
   id="svg394"
   sodipodi:docname="georust-logo.svg"
   inkscape:version="1.2.1 (9c6d41e, 2022-07-14)"
   xmlns:inkscape="http://www.inkscape.org/namespaces/inkscape"
   xmlns:sodipodi="http://sodipodi.sourceforge.net/DTD/sodipodi-0.dtd"
   xmlns:xlink="http://www.w3.org/1999/xlink"
   xmlns="http://www.w3.org/2000/svg"
   xmlns:svg="http://www.w3.org/2000/svg">
  <defs
     id="defs398" />
  <sodipodi:namedview
     id="namedview396"
     pagecolor="#ffffff"
     bordercolor="#666666"
     borderopacity="1.0"
     inkscape:showpageshadow="2"
     inkscape:pageopacity="0.0"
     inkscape:pagecheckerboard="0"
     inkscape:deskcolor="#d1d1d1"
     showgrid="true"
     inkscape:zoom="7.8766914"
     inkscape:cx="38.531407"
     inkscape:cy="54.845363"
     inkscape:window-width="1512"
     inkscape:window-height="916"
     inkscape:window-x="0"
     inkscape:window-y="38"
     inkscape:window-maximized="1"
     inkscape:current-layer="layer3">
    <inkscape:grid
       type="xygrid"
       id="grid633" />
  </sodipodi:namedview>
  <g
     inkscape:groupmode="layer"
     id="layer3"
     inkscape:label="guides"
     style="display:none">
    <circle
       style="opacity:0.662222;fill:#32ff00;fill-opacity:1;stroke-width:1.10427"
       id="path13180"
       cx="53.00713"
       cy="53.007133"
       r="38.475578"
       inkscape:label="outter" />
    <circle
       style="opacity:0.662222;fill:#008cff;fill-opacity:1;stroke-width:0.99006"
       id="circle13331"
       cx="53.00713"
       cy="53.007133"
       r="34.496189"
       inkscape:label="inner" />
  </g>
  <g
     id="logo"
     transform="translate(52.93549,53)"
     style="display:inline"
     inkscape:label="logo">
    <mask
       id="holes">
      <rect
         x="-60"
         y="-60"
         width="120"
         height="120"
         fill="#ffffff"
         id="rect381" />
      <circle
         id="hole"
         cy="-40"
         r="3"
         cx="0" />
      <use
         xlink:href="#hole"
         transform="rotate(72)"
         id="use384" />
      <use
         xlink:href="#hole"
         transform="rotate(144)"
         id="use386" />
      <use
         xlink:href="#hole"
         transform="rotate(-144)"
         id="use388" />
      <use
         xlink:href="#hole"
         transform="rotate(-72)"
         id="use390" />
    </mask>
    <polygon
       fill-rule="evenodd"
       clip-rule="evenodd"
       points="38.764,38.763 39.888,39.438 42.023,38.316 41.349,37.191 40.562,34.943 41.124,34.27 40.786,32.697 38.764,34.27 39.214,35.619 39.775,37.752 38.764,37.752 "
       id="polygon52"
       transform="matrix(0.68443217,0,0,0.68443217,-34.433437,-35.038891)" />
    <polygon
       fill-rule="evenodd"
       clip-rule="evenodd"
       points="36.293,38.316 37.978,37.529 38.426,36.18 37.753,35.507 35.955,36.741 "
       id="polygon54"
       transform="matrix(0.68443217,0,0,0.68443217,-34.433437,-35.038891)" />
    <polygon
       fill-rule="evenodd"
       clip-rule="evenodd"
       points="38.426,26.967 37.529,26.068 35.73,25.957 35.843,27.303 38.09,27.866 "
       id="polygon56"
       transform="matrix(0.68443217,0,0,0.68443217,-34.433437,-35.038891)" />
    <polygon
       fill-rule="evenodd"
       clip-rule="evenodd"
       points="50.338,17.978 50.785,16.855 48.764,17.978 49.55,19.662 50.338,18.989 50.899,19.212 51.011,18.316 "
       id="polygon58"
       transform="matrix(0.68443217,0,0,0.68443217,-34.433437,-35.038891)" />
    <polygon
       fill-rule="evenodd"
       clip-rule="evenodd"
       points="54.831,16.18 55.28,15.73 54.158,15.169 53.37,15.957 "
       id="polygon60"
       transform="matrix(0.68443217,0,0,0.68443217,-34.433437,-35.038891)" />
    <path
       fill-rule="evenodd"
       clip-rule="evenodd"
       d="m 0.10532028,-34.178021 c -18.89991028,0 -34.22160828,15.321699 -34.22160828,34.22160822 0,18.89991078 15.321698,34.22160878 34.22160828,34.22160878 C 19.00523,34.265196 34.326929,18.943498 34.326929,0.04358722 34.326929,-18.856322 19.00523,-34.178021 0.10532028,-34.178021 Z M -29.386862,0.04358722 c 0,-6.25365702 1.952,-12.04805922 5.272181,-16.81992022 l 0.380544,0.285408 -0.229969,0.923299 0.845274,0.231338 -0.153997,-1.230609 0.69196,-0.07666 v -1.61526 h 0.691961 c 0,0 0.121829,0.31347 0.249818,0.641997 0.140309,0.361381 0.288831,0.741925 0.288831,0.741925 l 0.768617,0.846642 c 0,0 -0.922615,0.229285 -1.229925,0.229285 -0.30731,0 -0.153997,1.230609 -0.153997,1.230609 l 1.075927,0.383967 0.695383,-1.283995 1.611838,-1.791159 0.768618,-2.383193 1.461262,-1.385291 -0.845958,-0.613251 0.923299,-0.615304 0.07666,-0.846643 -2.691187,0.768617 -0.08487,-0.101296 c 1.465369,-1.244982 3.052567,-2.349655 4.743799,-3.292118 l 1.262093,0.549599 -0.845274,1.61526 h -1.6926 l -0.307994,1.459893 h 1.384606 l 1.999227,-1.230609 1.384606,-1.383237 0.229969,-1.307266 -1.999226,-0.153312 1.383922,-0.923299 1.307265,0.231338 -0.229969,1.383237 1.7685732,-1.07798 0.307994,0.846642 0.384651,1.230609 -0.999955,1.230609 -1.0766123,0.999271 -1.6152599,-0.231338 0.769302,1.614576 -1.461263,-0.230654 -2.460534,2.537874 0.615305,0.846643 1.999226,-0.154682 1.691916,-0.539332 2.1539082,-0.229285 0.999271,-0.230654 c 0,0 0,-0.615304 -0.07734,-0.999271 -0.07597,-0.38465 0.769301,0.07597 0.769301,0.07597 l 0.923299,-0.537279 0.691961,-2.153908 2.53719,-1.154637 -0.383966,-0.613936 0.615304,-0.769986 -1.999226,-0.307994 0.537964,-0.768618 -2.537875,-0.846642 h -1.307265 l 0.461307,-1.152584 0.537964,-0.539333 -0.04312,-0.04312 c 2.140219,-0.493475 4.366677,-0.763142 6.65747108,-0.763142 3.56999892,0 6.99079092,0.634469 10.15765772,1.796635 l -0.07666,0.181374 -1.2805732,-0.08555 v 0.769986 l 0.51264,0.341532 v 0.683063 l 0.426401,0.59751 -1.53655,-0.939041 -1.024595,0.512639 0.51264,1.197072 0.255977,1.366127 0.683064,0.769986 1.6221032,0.255978 -0.341531,0.683063 -0.3415312,1.026648 1.4530482,0.939041 -0.08555,0.427086 -2.7336212,-2.307221 -0.170424,0.85554 1.195019,1.195703 0.6830632,0.255978 -1.5365502,0.341532 -0.171108,0.769986 -1.109465,-1.112202 -0.685116,-1.451681 -0.255978,-1.45305 -0.685116,0.854172 0.514008,2.050559 0.854171,0.599562 -0.341531,1.963636 -0.51264,-0.256662 0.08555,1.026648 -0.769986,-0.08555 -0.768617,-1.112202 h -0.939045 l -1.367496,-0.171108 -1.36817992,0.08555 -1.280572,1.026648 -0.85485608,1.451681 -1.794581,1.367495 -0.171108,0.768618 v 0.941094 l 0.427085,0.939041 0.854856,-0.683063 0.255978,0.511955 0.42777,0.7686166 0.08555,0.172477 0.42708608,0.51264 0.769301,-0.511956 -0.08555,-1.8801346 0.939041,-1.197072 c 0,0 0.0479099,-0.202592 0.10129592,-0.435983 0.07255,-0.311417 0.155366,-0.674166 0.155366,-0.674166 l 0.340848,-0.941094 0.599562,0.08555 -0.170424,0.769986 -0.343584,1.707659 1.625526,-0.171108 0.598194,0.171108 -1.282626,0.3429 0.170423,0.854172 -1.453049,0.93904 0.08555,0.9410946 -1.28057292,0.3422156 -0.255977,0.683063 -1.02596408,-0.341532 h -0.683748 v -1.4530486 l -0.769302,0.258031 v 0.7686166 l -2.136112,1.709712 -1.196388,0.427085 -0.51264,0.59751 -1.709711,-0.427086 -0.08555,0.768617 1.110833,0.428455 -0.08555,1.53655 -3.0765228,-0.08555 -0.427086,0.683063 -0.427086,1.197072 -0.513324,1.02664898 0.769302,0.854171 0.854856,1.02459504 2.7363598,-0.85554 0.171109,-1.02459504 0.598878,-0.51400898 1.025279,-0.341531 -0.08555,-0.683064 0.94041,-0.256662 1.366811,-0.255977 0.854856,1.024594 1.53791909,1.11220298 0.68374799,1.10946404 v 0.51264 l 0.853486,-0.51264 -0.426401,-0.76793304 0.170424,-0.85553998 -0.768618,-0.341531 -0.68374708,-0.939041 0.42708508,-1.36818 0.767933,1.111518 1.11014892,0.854171 0.426402,1.53860298 1.111517,0.85348704 0.258031,0.94109498 0.51264,-1.11151798 -0.171108,-0.51264004 0.255978,-0.427086 1.622104,-1.36749498 0.341532,-1.709712 0.685116,-0.512639 0.853487,0.08555 1.282626,-1.282626 0.08555,1.026648 1.8780812,0.597509 v 0.941095 H 8.8208792 l -2.307221,1.195018 -1.880135,1.02664798 0.512639,1.11014904 1.709027,0.341532 0.941095,0.42708598 1.024595,-0.68306398 0.08487,2.90609898 -2.906099,0.59751 -3.0731,-0.855541 -1.197072,0.941095 0.511955,0.511955 -0.941094,-0.170424 -2.9896,-1.111518 -0.854171,0.08692 -0.683748,-1.111517 V 0.81219422 h -1.538603 l -0.854172,-0.171108 -2.734991,0.59956298 -2.1361132,-0.172477 -0.939725,0.514008 -0.598194,0.08555 -0.342216,1.109465 -1.965005,1.36818 -2.734991,2.050559 -0.171108,2.648068 -0.769301,1.7097108 0.08555,1.023912 0.683747,1.197072 1.96569,3.331815 2.050558,0.94041 3.4180549,0.256662 -0.171108,-1.453734 -0.7693019,-0.426401 0.341532,-0.768617 0.5988779,0.683063 0.5975093,1.794581 2.563883,0.171108 1.025279,1.023911 1.452365,0.599562 0.171108,2.477645 1.538604,1.965689 1.4523651,2.562514 -1.2812571,1.538604 1.30863409,2.036185 C -16.763195,28.936892 -29.386862,15.967587 -29.386862,0.04358722 Z m 39.597823,27.71402778 3.565208,-2.591944 -1.280573,-3.162761 4.101802,-5.381691 1.280573,-3.418738 0.597509,-1.880136 -2.13406,1.026649 -1.282626,0.255977 -3.160707,-1.96569 -0.94041,-2.1361128 -1.1970718,-1.197072 -1.537235,-3.416685 1.280573,1.024595 2.3941438,2.648753 0.854171,1.197071 1.706974,0.853487 0.514008,2.2216678 2.051244,-1.366127 2.477644,-3.0772068 1.196388,-3.160708 -0.94041,-0.767933 -0.51264,-0.941094 -0.598878,1.111517 -1.195703,1.366127 -1.709027,-1.880135 -0.511956,-1.450996 1.196388,0.255977 1.195703,0.59751 1.709027,-0.59751 1.026648,0.341532 2.731569,-1.88013498 1.540657,0.85553998 0.939041,-0.51400898 2.04303,3.21683198 1.012275,-0.96505 0.01985,-1.225818 0.08487,-3.674716 0.628309,-1.741196 c 0.152628,1.214868 0.240236,2.450268 0.240236,3.70688502 0,12.73659878 -8.075616,23.58827178 -19.386542,27.71334378 z"
       id="path62"
       style="display:inline;stroke-width:0.684432" />
  </g>
  <g
     id="gear"
     mask="url(#holes)"
     style="display:inline"
     transform="translate(53,53)">
    <circle
       r="43"
       fill="none"
       stroke="#000000"
       stroke-width="9"
       id="circle304"
       cx="0"
       cy="0" />
    <g
       id="cogs">
      <polygon
         id="cog"
         stroke="#000000"
         stroke-width="3"
         stroke-linejoin="round"
         points="46,-3 46,3 51,0 " />
      <use
         xlink:href="#cog"
         transform="rotate(11.25)"
         id="use307" />
      <use
         xlink:href="#cog"
         transform="rotate(22.5)"
         id="use309" />
      <use
         xlink:href="#cog"
         transform="rotate(33.75)"
         id="use311" />
      <use
         xlink:href="#cog"
         transform="rotate(45)"
         id="use313" />
      <use
         xlink:href="#cog"
         transform="rotate(56.25)"
         id="use315" />
      <use
         xlink:href="#cog"
         transform="rotate(67.5)"
         id="use317" />
      <use
         xlink:href="#cog"
         transform="rotate(78.75)"
         id="use319" />
      <use
         xlink:href="#cog"
         transform="rotate(90)"
         id="use321" />
      <use
         xlink:href="#cog"
         transform="rotate(101.25)"
         id="use323" />
      <use
         xlink:href="#cog"
         transform="rotate(112.5)"
         id="use325" />
      <use
         xlink:href="#cog"
         transform="rotate(123.75)"
         id="use327" />
      <use
         xlink:href="#cog"
         transform="rotate(135)"
         id="use329" />
      <use
         xlink:href="#cog"
         transform="rotate(146.25)"
         id="use331" />
      <use
         xlink:href="#cog"
         transform="rotate(157.5)"
         id="use333" />
      <use
         xlink:href="#cog"
         transform="rotate(168.75)"
         id="use335" />
      <use
         xlink:href="#cog"
         transform="scale(-1)"
         id="use337" />
      <use
         xlink:href="#cog"
         transform="rotate(-168.75)"
         id="use339" />
      <use
         xlink:href="#cog"
         transform="rotate(-157.5)"
         id="use341" />
      <use
         xlink:href="#cog"
         transform="rotate(-146.25)"
         id="use343" />
      <use
         xlink:href="#cog"
         transform="rotate(-135)"
         id="use345" />
      <use
         xlink:href="#cog"
         transform="rotate(-123.75)"
         id="use347" />
      <use
         xlink:href="#cog"
         transform="rotate(-112.5)"
         id="use349" />
      <use
         xlink:href="#cog"
         transform="rotate(-101.25)"
         id="use351" />
      <use
         xlink:href="#cog"
         transform="rotate(-90)"
         id="use353" />
      <use
         xlink:href="#cog"
         transform="rotate(-78.75)"
         id="use355" />
      <use
         xlink:href="#cog"
         transform="rotate(-67.5)"
         id="use357" />
      <use
         xlink:href="#cog"
         transform="rotate(-56.25)"
         id="use359" />
      <use
         xlink:href="#cog"
         transform="rotate(-45)"
         id="use361" />
      <use
         xlink:href="#cog"
         transform="rotate(-33.75)"
         id="use363" />
      <use
         xlink:href="#cog"
         transform="rotate(-22.5)"
         id="use365" />
      <use
         xlink:href="#cog"
         transform="rotate(-11.25)"
         id="use367" />
    </g>
    <g
       id="mounts">
      <polygon
         id="mount"
         stroke="#000000"
         stroke-width="6"
         stroke-linejoin="round"
         points="7,-42 -7,-42 0,-35 " />
      <use
         xlink:href="#mount"
         transform="rotate(72)"
         id="use371" />
      <use
         xlink:href="#mount"
         transform="rotate(144)"
         id="use373" />
      <use
         xlink:href="#mount"
         transform="rotate(-144)"
         id="use375" />
      <use
         xlink:href="#mount"
         transform="rotate(-72)"
         id="use377" />
    </g>
  </g>
</svg>
